<?xml version="1.0" encoding="UTF-8" standalone="no"?>
<svg
   version="1.1"
   x="0px"
   y="0px"
   viewBox="0 0 80 76"
   xml:space="preserve"
   id="svg92"
   sodipodi:docname="noun-survey-box-2442180.svg"
   inkscape:version="1.2.2 (b0a84865, 2022-12-01)"
   width="80"
   height="76"
   xmlns:inkscape="http://www.inkscape.org/namespaces/inkscape"
   xmlns:sodipodi="http://sodipodi.sourceforge.net/DTD/sodipodi-0.dtd"
   xmlns="http://www.w3.org/2000/svg"
   xmlns:svg="http://www.w3.org/2000/svg"><defs
     id="defs96" /><sodipodi:namedview
     id="namedview94"
     pagecolor="#ffffff"
     bordercolor="#000000"
     borderopacity="0.25"
     inkscape:showpageshadow="2"
     inkscape:pageopacity="0.0"
     inkscape:pagecheckerboard="0"
     inkscape:deskcolor="#d1d1d1"
     showgrid="false"
     inkscape:zoom="1.888"
     inkscape:cx="38.135593"
     inkscape:cy="48.463983"
     inkscape:window-width="1512"
     inkscape:window-height="843"
     inkscape:window-x="0"
     inkscape:window-y="38"
     inkscape:window-maximized="1"
     inkscape:current-layer="svg92" /><g
     id="g86"
     transform="translate(-10,-12)"><path
       d="m 89.995178,62.975952 c -0.0027,-0.116455 -0.02551,-0.230469 -0.0686,-0.339966 -0.01038,-0.02637 -0.02533,-0.04858 -0.03778,-0.07379 -0.02246,-0.04553 -0.03979,-0.09308 -0.06946,-0.135437 l -14,-20 C 75.631836,42.15918 75.326172,42 75,42 H 66 V 13 c 0,-0.552246 -0.447266,-1 -1,-1 H 35 c -0.552734,0 -1,0.447754 -1,1 v 29 h -9 c -0.326172,0 -0.631836,0.15918 -0.819336,0.426758 l -14,20 c -0.02972,0.04248 -0.04712,0.09009 -0.06958,0.135742 -0.01239,0.02502 -0.02728,0.04712 -0.0376,0.0733 -0.04309,0.109558 -0.06586,0.223633 -0.0686,0.340149 C 10.0047,62.984436 10,62.991455 10,63 v 24 c 0,0.552246 0.447266,1 1,1 h 78 c 0.552734,0 1,-0.447754 1,-1 V 63 c 0,-0.0085 -0.0046,-0.01556 -0.0048,-0.02405 z M 36,51.189941 V 43 14 H 64 V 43 51.189941 52 H 36 Z M 35,54 h 30 c 0.552734,0 1,-0.447754 1,-1 v -0.569824 c 1.865234,0.450195 2.608398,0.871094 2.883789,1.080566 C 67.740234,54.4375 61.439453,56 50,56 38.560547,56 32.259766,54.4375 31.116211,53.510742 31.391602,53.301269 32.134766,52.880371 34,52.430176 V 53 c 0,0.552246 0.447266,1 1,1 z M 25.520508,44 H 34 v 6.384949 C 30.567627,51.1474 29,52.118347 29,53.5 c 0,4.373535 18.850586,4.5 21,4.5 2.149414,0 21,-0.126465 21,-4.5 0,-1.381653 -1.567627,-2.3526 -5,-3.115051 V 44 h 8.479492 l 12.59961,18 H 12.920898 Z M 88,86 H 12 V 64 h 76 z"
       id="path66" /><path
       d="m 44.5,40 h -4 c -0.552734,0 -1,0.447754 -1,1 v 4 c 0,0.552246 0.447266,1 1,1 h 4 c 0.552734,0 1,-0.447754 1,-1 v -4 c 0,-0.552246 -0.447266,-1 -1,-1 z m -1,4 h -2 v -2 h 2 z"
       id="path68" /><path
       d="m 59.5,40 h -11 c -0.552734,0 -1,0.447754 -1,1 0,0.552246 0.447266,1 1,1 h 11 c 0.552734,0 1,-0.447754 1,-1 0,-0.552246 -0.447266,-1 -1,-1 z"
       id="path70" /><path
       d="m 59.5,44 h -11 c -0.552734,0 -1,0.447754 -1,1 0,0.552246 0.447266,1 1,1 h 11 c 0.552734,0 1,-0.447754 1,-1 0,-0.552246 -0.447266,-1 -1,-1 z"
       id="path72" /><path
       d="m 59.5,30 h -11 c -0.552734,0 -1,0.447754 -1,1 0,0.552246 0.447266,1 1,1 h 11 c 0.552734,0 1,-0.447754 1,-1 0,-0.552246 -0.447266,-1 -1,-1 z"
       id="path74" /><path
       d="m 59.5,34 h -11 c -0.552734,0 -1,0.447754 -1,1 0,0.552246 0.447266,1 1,1 h 11 c 0.552734,0 1,-0.447754 1,-1 0,-0.552246 -0.447266,-1 -1,-1 z"
       id="path76" /><path
       d="m 40.5,26 h 4 c 0.552734,0 1,-0.447754 1,-1 v -4 c 0,-0.552246 -0.447266,-1 -1,-1 h -4 c -0.552734,0 -1,0.447754 -1,1 v 4 c 0,0.552246 0.447266,1 1,1 z m 1,-4 h 2 v 2 h -2 z"
       id="path78" /><path
       d="m 59.5,20 h -11 c -0.552734,0 -1,0.447754 -1,1 0,0.552246 0.447266,1 1,1 h 11 c 0.552734,0 1,-0.447754 1,-1 0,-0.552246 -0.447266,-1 -1,-1 z"
       id="path80" /><path
       d="m 59.5,24 h -11 c -0.552734,0 -1,0.447754 -1,1 0,0.552246 0.447266,1 1,1 h 11 c 0.552734,0 1,-0.447754 1,-1 0,-0.552246 -0.447266,-1 -1,-1 z"
       id="path82" /><path
       d="m 45.269531,30.317383 -2.668945,2.857422 -1.416992,-1.172364 c -0.427735,-0.354003 -1.057617,-0.291992 -1.408203,0.133301 -0.351563,0.425293 -0.291993,1.055664 0.132812,1.407715 l 2.142578,1.772461 c 0.186524,0.153808 0.41211,0.229492 0.637696,0.229492 0.267578,0 0.534179,-0.107422 0.730468,-0.317383 l 3.311524,-3.54541 c 0.376953,-0.403808 0.355469,-1.036621 -0.04785,-1.413574 -0.402344,-0.375977 -1.036133,-0.355957 -1.413086,0.04834 z"
       id="path84" /></g></svg>
